<mxfile host="app.diagrams.net" modified="2020-11-02T03:52:04.903Z" agent="5.0 (Windows NT 10.0; Win64; x64) AppleWebKit/537.36 (KHTML, like Gecko) Chrome/86.0.4240.111 Safari/537.36" etag="E-LiDAoSjQNfbyhwzx7r" version="13.7.5" type="github">
  <diagram id="R2lEEEUBdFMjLlhIrx00" name="Page-1">
    <mxGraphModel dx="899" dy="416" grid="1" gridSize="10" guides="1" tooltips="1" connect="1" arrows="1" fold="1" page="1" pageScale="1" pageWidth="850" pageHeight="1100" math="0" shadow="0" extFonts="Permanent Marker^https://fonts.googleapis.com/css?family=Permanent+Marker">
      <root>
        <mxCell id="0" />
        <mxCell id="1" parent="0" />
        <mxCell id="sYSik5G-vVVfuDr9N6p--3" value="Case" style="swimlane;childLayout=stackLayout;horizontal=1;startSize=30;horizontalStack=0;rounded=1;fontSize=14;fontStyle=0;strokeWidth=2;resizeParent=0;resizeLast=1;shadow=0;dashed=0;align=center;" vertex="1" parent="1">
          <mxGeometry x="360" y="120" width="220" height="150" as="geometry" />
        </mxCell>
        <mxCell id="sYSik5G-vVVfuDr9N6p--4" value="Case Number &#xa;Patient&#xa;Infecting Virus&#xa;Date (on which the case was confirmed)&#xa;Local or Imported&#xa;Location" style="align=left;strokeColor=none;fillColor=none;spacingLeft=4;fontSize=12;verticalAlign=top;resizable=0;rotatable=0;part=1;" vertex="1" parent="sYSik5G-vVVfuDr9N6p--3">
          <mxGeometry y="30" width="220" height="120" as="geometry" />
        </mxCell>
        <mxCell id="sYSik5G-vVVfuDr9N6p--1" value="CHP staff" style="swimlane;childLayout=stackLayout;horizontal=1;startSize=30;horizontalStack=0;rounded=1;fontSize=14;fontStyle=0;strokeWidth=2;resizeParent=0;resizeLast=1;shadow=0;dashed=0;align=center;" vertex="1" parent="1">
          <mxGeometry x="70" y="120" width="190" height="150" as="geometry" />
        </mxCell>
        <mxCell id="sYSik5G-vVVfuDr9N6p--2" value="username&#xa;password&#xa;CHP staff number (7-digit string)&#xa;first name&#xa;last name&#xa;email address" style="align=left;strokeColor=none;fillColor=none;spacingLeft=4;fontSize=12;verticalAlign=top;resizable=0;rotatable=0;part=1;" vertex="1" parent="sYSik5G-vVVfuDr9N6p--1">
          <mxGeometry y="30" width="190" height="120" as="geometry" />
        </mxCell>
        <mxCell id="sYSik5G-vVVfuDr9N6p--5" value="" style="endArrow=none;html=1;entryX=0;entryY=0.5;entryDx=0;entryDy=0;" edge="1" parent="1" source="sYSik5G-vVVfuDr9N6p--2" target="sYSik5G-vVVfuDr9N6p--4">
          <mxGeometry width="50" height="50" relative="1" as="geometry">
            <mxPoint x="280" y="240" as="sourcePoint" />
            <mxPoint x="330" y="190" as="targetPoint" />
          </mxGeometry>
        </mxCell>
        <mxCell id="sYSik5G-vVVfuDr9N6p--6" value="1" style="text;strokeColor=none;fillColor=none;spacingLeft=4;spacingRight=4;overflow=hidden;rotatable=0;points=[[0,0.5],[1,0.5]];portConstraint=eastwest;fontSize=12;" vertex="1" parent="1">
          <mxGeometry x="260" y="180" width="40" height="30" as="geometry" />
        </mxCell>
        <mxCell id="sYSik5G-vVVfuDr9N6p--7" value="0...*" style="text;strokeColor=none;fillColor=none;spacingLeft=4;spacingRight=4;overflow=hidden;rotatable=0;points=[[0,0.5],[1,0.5]];portConstraint=eastwest;fontSize=12;" vertex="1" parent="1">
          <mxGeometry x="330" y="180" width="220" as="geometry" />
        </mxCell>
        <mxCell id="sYSik5G-vVVfuDr9N6p--10" value="record" style="text;strokeColor=none;fillColor=none;spacingLeft=4;spacingRight=4;overflow=hidden;rotatable=0;points=[[0,0.5],[1,0.5]];portConstraint=eastwest;fontSize=12;" vertex="1" parent="1">
          <mxGeometry x="280" y="210" width="50" height="30" as="geometry" />
        </mxCell>
        <mxCell id="sYSik5G-vVVfuDr9N6p--11" value="" style="endArrow=none;html=1;rounded=0;exitX=0.5;exitY=1;exitDx=0;exitDy=0;entryX=0.5;entryY=0;entryDx=0;entryDy=0;" edge="1" parent="1" source="sYSik5G-vVVfuDr9N6p--4" target="sYSik5G-vVVfuDr9N6p--8">
          <mxGeometry relative="1" as="geometry">
            <mxPoint x="440" y="300" as="sourcePoint" />
            <mxPoint x="600" y="300" as="targetPoint" />
          </mxGeometry>
        </mxCell>
        <mxCell id="sYSik5G-vVVfuDr9N6p--8" value="Patient" style="swimlane;childLayout=stackLayout;horizontal=1;startSize=30;horizontalStack=0;rounded=1;fontSize=14;fontStyle=0;strokeWidth=2;resizeParent=0;resizeLast=1;shadow=0;dashed=0;align=center;" vertex="1" parent="1">
          <mxGeometry x="390" y="350" width="160" height="120" as="geometry" />
        </mxCell>
        <mxCell id="sYSik5G-vVVfuDr9N6p--9" value="Name&#xa;Identity Document Number&#xa;Date of Birth." style="align=left;strokeColor=none;fillColor=none;spacingLeft=4;fontSize=12;verticalAlign=top;resizable=0;rotatable=0;part=1;" vertex="1" parent="sYSik5G-vVVfuDr9N6p--8">
          <mxGeometry y="30" width="160" height="90" as="geometry" />
        </mxCell>
        <mxCell id="sYSik5G-vVVfuDr9N6p--14" value="0...*" style="text;strokeColor=none;fillColor=none;spacingLeft=4;spacingRight=4;overflow=hidden;rotatable=0;points=[[0,0.5],[1,0.5]];portConstraint=eastwest;fontSize=12;" vertex="1" parent="1">
          <mxGeometry x="433" y="268" width="40" height="30" as="geometry" />
        </mxCell>
        <mxCell id="sYSik5G-vVVfuDr9N6p--15" value="1" style="text;strokeColor=none;fillColor=none;spacingLeft=4;spacingRight=4;overflow=hidden;rotatable=0;points=[[0,0.5],[1,0.5]];portConstraint=eastwest;fontSize=12;" vertex="1" parent="1">
          <mxGeometry x="441" y="322" width="40" height="30" as="geometry" />
        </mxCell>
        <mxCell id="sYSik5G-vVVfuDr9N6p--16" value="Infect" style="text;strokeColor=none;fillColor=none;spacingLeft=4;spacingRight=4;overflow=hidden;rotatable=0;points=[[0,0.5],[1,0.5]];portConstraint=eastwest;fontSize=12;" vertex="1" parent="1">
          <mxGeometry x="478" y="297" width="40" height="30" as="geometry" />
        </mxCell>
        <mxCell id="sYSik5G-vVVfuDr9N6p--17" value="Virus" style="swimlane;childLayout=stackLayout;horizontal=1;startSize=30;horizontalStack=0;rounded=1;fontSize=14;fontStyle=0;strokeWidth=2;resizeParent=0;resizeLast=1;shadow=0;dashed=0;align=center;" vertex="1" parent="1">
          <mxGeometry x="190" y="352" width="160" height="120" as="geometry" />
        </mxCell>
        <mxCell id="sYSik5G-vVVfuDr9N6p--18" value="Name&#xa;Common Name&#xa;Max. Infectious Period" style="align=left;strokeColor=none;fillColor=none;spacingLeft=4;fontSize=12;verticalAlign=top;resizable=0;rotatable=0;part=1;" vertex="1" parent="sYSik5G-vVVfuDr9N6p--17">
          <mxGeometry y="30" width="160" height="90" as="geometry" />
        </mxCell>
        <mxCell id="sYSik5G-vVVfuDr9N6p--21" value="" style="endArrow=none;html=1;rounded=0;entryX=0.25;entryY=1;entryDx=0;entryDy=0;exitX=0.5;exitY=0;exitDx=0;exitDy=0;" edge="1" parent="1" source="sYSik5G-vVVfuDr9N6p--17" target="sYSik5G-vVVfuDr9N6p--4">
          <mxGeometry relative="1" as="geometry">
            <mxPoint x="220" y="320" as="sourcePoint" />
            <mxPoint x="380" y="320" as="targetPoint" />
          </mxGeometry>
        </mxCell>
        <mxCell id="sYSik5G-vVVfuDr9N6p--22" value="0...*" style="text;strokeColor=none;fillColor=none;spacingLeft=4;spacingRight=4;overflow=hidden;rotatable=0;points=[[0,0.5],[1,0.5]];portConstraint=eastwest;fontSize=12;" vertex="1" parent="1">
          <mxGeometry x="344" y="269" width="40" height="30" as="geometry" />
        </mxCell>
        <mxCell id="sYSik5G-vVVfuDr9N6p--23" value="1" style="text;strokeColor=none;fillColor=none;spacingLeft=4;spacingRight=4;overflow=hidden;rotatable=0;points=[[0,0.5],[1,0.5]];portConstraint=eastwest;fontSize=12;" vertex="1" parent="1">
          <mxGeometry x="300" y="327" width="40" height="30" as="geometry" />
        </mxCell>
        <mxCell id="sYSik5G-vVVfuDr9N6p--24" value="Infected by" style="text;strokeColor=none;fillColor=none;spacingLeft=4;spacingRight=4;overflow=hidden;rotatable=0;points=[[0,0.5],[1,0.5]];portConstraint=eastwest;fontSize=12;" vertex="1" parent="1">
          <mxGeometry x="290" y="292" width="80" height="30" as="geometry" />
        </mxCell>
        <mxCell id="sYSik5G-vVVfuDr9N6p--28" value="" style="endArrow=none;html=1;rounded=0;exitX=1;exitY=0.5;exitDx=0;exitDy=0;entryX=0;entryY=0.5;entryDx=0;entryDy=0;" edge="1" parent="1" source="sYSik5G-vVVfuDr9N6p--4" target="sYSik5G-vVVfuDr9N6p--27">
          <mxGeometry relative="1" as="geometry">
            <mxPoint x="580" y="260" as="sourcePoint" />
            <mxPoint x="660" y="210" as="targetPoint" />
          </mxGeometry>
        </mxCell>
        <mxCell id="sYSik5G-vVVfuDr9N6p--26" value="Location" style="swimlane;childLayout=stackLayout;horizontal=1;startSize=30;horizontalStack=0;rounded=1;fontSize=14;fontStyle=0;strokeWidth=2;resizeParent=0;resizeLast=1;shadow=0;dashed=0;align=center;" vertex="1" parent="1">
          <mxGeometry x="700" y="112.5" width="360" height="165" as="geometry" />
        </mxCell>
        <mxCell id="sYSik5G-vVVfuDr9N6p--27" value="Name of Location Visited&#xa;Address (if listed in Geodata dataset)&#xa;HK1980 Grid Coordinates&#xa;Dates between which the case’s patient was present at the location&#xa;Category of the location with respect to the patient" style="align=left;strokeColor=none;fillColor=none;spacingLeft=4;fontSize=12;verticalAlign=top;resizable=0;rotatable=0;part=1;" vertex="1" parent="sYSik5G-vVVfuDr9N6p--26">
          <mxGeometry y="30" width="360" height="135" as="geometry" />
        </mxCell>
        <mxCell id="sYSik5G-vVVfuDr9N6p--29" value="0...*" style="text;strokeColor=none;fillColor=none;spacingLeft=4;spacingRight=4;overflow=hidden;rotatable=0;points=[[0,0.5],[1,0.5]];portConstraint=eastwest;fontSize=12;" vertex="1" parent="1">
          <mxGeometry x="580" y="190" width="40" height="30" as="geometry" />
        </mxCell>
        <mxCell id="sYSik5G-vVVfuDr9N6p--30" value="1...*" style="text;strokeColor=none;fillColor=none;spacingLeft=4;spacingRight=4;overflow=hidden;rotatable=0;points=[[0,0.5],[1,0.5]];portConstraint=eastwest;fontSize=12;" vertex="1" parent="1">
          <mxGeometry x="660" y="190" width="40" height="30" as="geometry" />
        </mxCell>
        <mxCell id="sYSik5G-vVVfuDr9N6p--33" value="been to" style="text;strokeColor=none;fillColor=none;spacingLeft=4;spacingRight=4;overflow=hidden;rotatable=0;points=[[0,0.5],[1,0.5]];portConstraint=eastwest;fontSize=12;" vertex="1" parent="1">
          <mxGeometry x="614" y="211" width="60" height="30" as="geometry" />
        </mxCell>
      </root>
    </mxGraphModel>
  </diagram>
</mxfile>
